PathFileType	4	(X/Y/Z)	Patient4_TMGait_0pt3_02_right_25.trc.trc
DataRate	CameraRate	NumFrames	NumMarkers	Units	OrigDataRate	OrigDataStartFrame	OrigNumFrames
51.470588235294	51.470588235294	4	33	mm	51.470588235294	18	       141
Frame#	Time	Sacral			L.Shoulder			Chest			R.Shoulder			Neck			R.ASIS			L.ASIS			R.Thigh.Superior			R.Thigh.Lateral			R.Thigh.Inferior			R.Patella			L.Thigh.Superior			L.Thigh.Lateral			L.Thigh.Inferior			L.Patella			L.Shank.Superior			L.Shank.Lateral			L.Shank.Inferior			R.Shank.Superior			R.Shank.Lateral			R.Shank.Inferior			R.Heel			R.Midfoot.Superior			R.Midfoot.Lateral			R.Toe			L.Heel			L.Midfoot.Lateral			L.Midfoot.Superior			L.Toe			L.Elbow			L.Wrist			R.Elbow			R.Wrist			
		X1	Y1	Z1	X2	Y2	Z2	X3	Y3	Z3	X4	Y4	Z4	X5	Y5	Z5	X6	Y6	Z6	X7	Y7	Z7	X8	Y8	Z8	X9	Y9	Z9	X10	Y10	Z10	X11	Y11	Z11	X12	Y12	Z12	X13	Y13	Z13	X14	Y14	Z14	X15	Y15	Z15	X16	Y16	Z16	X17	Y17	Z17	X18	Y18	Z18	X19	Y19	Z19	X20	Y20	Z20	X21	Y21	Z21	X22	Y22	Z22	X23	Y23	Z23	X24	Y24	Z24	X25	Y25	Z25	X26	Y26	Z26	X27	Y27	Z27	X28	Y28	Z28	X29	Y29	Z29	X30	Y30	Z30	X31	Y31	Z31	X32	Y32	Z32	X33	Y33	Z33	

18	48.380285714286	753.552768644577	1000.174803540746	392.434877056566	962.655373029332	1432.749052645649	242.982124722513	1029.987609170289	1362.136035856290	420.434282508650	915.590470148679	1433.248109141559	576.102181113539	918.786404408585	1494.679824349920	396.360834224104	967.593827068850	944.380294780765	543.891343593716	989.747813712274	958.893542087229	268.392827725121	1047.410841664077	766.563410356944	518.363928238959	996.387219902824	648.095619196397	589.240490333219	1085.023268695654	606.173341373467	512.009914705423	1113.055759785649	516.480071216521	532.826313920006	1017.274803353508	737.542000041041	309.395539199796	925.520707288003	622.287078884656	246.540828061626	994.375788399275	543.499022938523	322.213011039300	987.459462930594	473.675761708468	334.629592358929	951.901053655178	402.796908318272	327.717199507865	854.166052076345	296.351879781296	274.250642010875	882.003429413964	184.781890222212	355.161981987745	1079.449628053086	428.272341298025	546.004400214266	1003.133515095718	331.074329040078	613.705112693899	1053.303551085644	230.659262182203	566.436002091643	927.120302096154	55.082873881913	547.805662246823	1096.531002248203	118.648915949058	584.029717471743	1012.851479663870	48.996926365638	619.373812770314	1217.459831904624	74.670381832964	607.745767950559	736.823458110365	38.811870651440	395.090936288557	812.732665379526	35.452220501024	316.349088302111	896.441837926548	95.231290483951	346.344355663857	1024.610069340938	43.188531340371	319.856343962177	1098.392590383229	1126.517175160391	101.830919656816	1334.477400873660	1019.327146581220	142.155329682151	772.970682738557	1114.250210408237	673.279378398424	759.944649588163	853.217405802766	685.547670009112	
19	48.399714285714	754.434304108035	1000.503558916821	393.053010484306	965.441876948508	1433.071421812127	246.575157660336	1030.772590601213	1362.118469876466	424.589995205256	914.960805293346	1433.534263289353	579.093863989548	920.077660428690	1494.772782652642	399.573433761402	967.008115260848	944.018786179634	546.344431911816	991.446988246030	959.093710509917	270.879289907190	1045.336851846265	764.891725856487	522.077436701690	992.026836370673	646.706203457110	591.957931380463	1081.255629996409	604.559605398070	515.571087021760	1108.518215297811	516.602097532923	535.399278043017	1015.332382186251	736.564771912416	311.417911365456	921.804774432488	622.860958027516	247.179017931168	988.647911672395	542.821238296663	322.832061783090	980.456186933279	473.372681268947	335.011239496267	945.387803063152	402.983443244780	327.795094220751	847.806232221326	296.457071435378	274.158288333582	875.816000564896	184.877672037901	355.143469424927	1078.179602763798	427.954460157763	548.343774396049	1005.492686597699	327.783525285782	616.097988271103	1059.228104297646	229.224828861660	568.262886947358	938.987571848285	50.003209001519	549.580053701656	1107.008795828324	117.947303942545	585.283940919713	1025.286127477873	45.590819982708	620.441510675256	1229.272801051635	76.885111857352	607.688460666560	730.882787064526	38.689874185732	395.062684200533	806.780285155886	35.348493568001	316.319445433948	890.468390284187	95.207231818098	346.303852929812	1018.664836623225	43.253703045864	319.883513634593	1104.888758310530	1130.188500424652	103.925001042199	1345.112187118240	1033.368459640668	144.972795124510	763.386823593643	1119.067628527199	673.018586353806	743.142443404414	858.572773699414	683.744988919376	
20	48.419142857143	755.529110036294	1000.343856062358	394.145741078135	967.996366472924	1432.947103971420	250.367012306758	1031.617608304963	1361.750222245857	428.844486764534	914.626530331240	1433.426877689521	582.361404602398	921.368000101895	1494.473039576225	403.031357757879	966.798543816788	943.224466048393	549.003823379754	993.284989288495	958.938283944583	273.590339307948	1043.698865139094	762.779096357356	525.771210907903	988.160124416788	644.871485157119	594.535398929328	1077.901408847904	602.537986626280	518.847768946131	1104.125564546240	515.957455401544	537.711078137368	1013.898826575627	735.422367948910	313.586066808904	918.695606805677	623.192126073874	248.072433659875	983.643587384787	541.991031133064	323.666506016214	974.257186497294	472.856493010428	335.605888246355	939.520312885350	402.920664122594	328.098413672776	841.898164813992	296.522123191313	274.206191217918	869.842220005008	184.841192579047	355.189314180276	1076.476159628989	426.975212477661	550.506159317599	1006.687630617116	324.556177243761	618.189482983184	1063.153578397304	227.577817485048	569.851551438822	947.461864975040	46.242344955984	550.998762799134	1114.498245069621	116.785415927593	586.322359543068	1034.058888863987	42.886552149264	621.380161262603	1237.511816591963	77.513062548514	607.813684555977	724.946415918192	38.555000980584	395.042320548811	800.838190594141	35.233333679169	316.296124635119	884.510802721438	95.156317283016	346.291550146899	1012.737608915108	43.271266162491	319.916434385677	1110.940498232580	1133.288380679708	106.299229833596	1354.846138501751	1046.900996874992	147.736562275288	755.575144131427	1122.945830836983	672.909754303189	728.645723944183	863.084999620306	681.896193597432	
21	48.438571428571	756.841900122704	999.782159366907	395.710309637811	970.357089250628	1432.448444719396	254.343641960497	1032.551091889031	1361.098675557966	433.197750535653	914.594637192976	1432.977936882273	585.904557799140	922.669109416655	1493.849975527436	406.725110797015	966.969265951055	942.088410675753	551.898333676456	995.274344119434	958.478117785678	276.563063809481	1042.580308220513	760.394773911072	529.404731862964	984.913373345536	642.724256547294	596.929731683918	1075.117449956272	600.265136227105	521.837386553097	1100.092149139700	514.672807386079	539.761724062272	1013.004682257678	734.134343432051	315.914920173510	916.215661775819	623.296926869811	249.265749120436	979.412386100822	541.021011216287	324.757336823121	968.924858050194	472.133334751539	336.456776921558	934.335892878814	402.623443141333	328.662775521817	836.464034140534	296.578824518144	274.423731951273	864.096087847078	184.689593447620	355.310150491131	1074.518045996060	425.427657752879	552.450660928819	1006.852203828649	321.432173660902	619.950505000044	1065.191413838771	225.693845284447	571.133761809018	952.531662871207	43.649953442546	552.009892735424	1119.059028914523	115.099729987612	587.038553577867	1039.204397755646	40.786308808859	622.144690168903	1242.331349920986	76.516960386089	608.037338355722	719.020911955515	38.426741670011	395.020933702551	794.914737081510	35.116799138349	316.279423220544	878.581200716075	95.085255019377	346.303248015853	1006.835138058051	43.230584998742	319.953303166484	1116.521153785217	1135.830707352010	108.947330767281	1363.661462209550	1059.878443583911	150.440405702683	749.561067456769	1125.812196361890	673.032879556058	716.393901044704	866.643286259071	680.129912595674	
